{"title":"Bloodrayne.The.Third.Reich.2010.H.264.AC3.NL.Subs.MQ.DMT","uid":6470847,"size":730782627,"categoryP":"video","categoryS":"movies","magnet":"?xt=urn:btih:0e8ec3bf0b45d6c1088f9e63a33ac03b2fe89de2&amp;dn=Bloodrayne.The.Third.Reich.2010.H.264.AC3.NL.Subs.MQ.DMT&amp;tr=udp%3A%2F%2Ftracker.openbittorrent.com%3A80&amp;tr=udp%3A%2F%2Fopen.demonii.com%3A1337&amp;tr=udp%3A%2F%2Ftracker.coppersurfer.tk%3A6969&amp;tr=udp%3A%2F%2Fexodus.desync.com%3A6969","seeders":0,"leechers":1,"uploader":"NLUPPER002","files":-1,"time":1308136255,"description":"Bloodrayne.The.Third.Reich.2010.H.264.AC3.NL.Subs.MQ.DMT\n.\n\nVerenigde Staten / Canada / Duitsland\nActie / Fantasy\n95 minuten\n\ngeregisseerd door Uwe Boll\nmet Natassia Malthe, Michael ParÃƒÅ¡ en Brendan Fletcher\n\nRayne vecht tegen de Nazi's in Europa tijdens de Tweede Wereldoorlog. Ze wordt geconfronteerd met Ekart Brand, een Nazileider die als doel heeft om Hitler in te spuiten met Rayne's bloed in een poging hem te veranderen in een dhampir (half mens, half vampier) en hem hierdoor onsterfelijk te maken.\n. &lt;a href=&quot;\nhttp://www.moviemeter.nl/film/65270&quot; rel=&quot;nofollow&quot; target=&quot;_NEW&quot;&gt;\nhttp://www.moviemeter.nl/film/65270&lt;/a&gt;\n.\nPLOT\n.\nRayne fights against the Nazis in Europe during World War II, encountering Ekart Brand, a Nazi leader...\n. &lt;a href=&quot;\nhttp://www.imdb.com/title/tt1153546/&quot; rel=&quot;nofollow&quot; target=&quot;_NEW&quot;&gt;\nhttp://www.imdb.com/title/tt1153546/&lt;/a&gt;\n.\nINFO\n.\nRelease Date: 11.06.2011\nStore Date: 24.06.2011\nGenre: Action\nRuntime: 75 Min.\nSource: PAL DVDR\n.\nPictures:\n.\n   &lt;a href=&quot; http://bayimg.com/nAiaNAaDk&quot; rel=&quot;nofollow&quot; target=&quot;_NEW&quot;&gt; http://bayimg.com/nAiaNAaDk&lt;/a&gt;\n   &lt;a href=&quot; http://bayimg.com/naiAOaADk&quot; rel=&quot;nofollow&quot; target=&quot;_NEW&quot;&gt; http://bayimg.com/naiAOaADk&lt;/a&gt;\n   &lt;a href=&quot; http://bayimg.com/naiApAAdk&quot; rel=&quot;nofollow&quot; target=&quot;_NEW&quot;&gt; http://bayimg.com/naiApAAdk&lt;/a&gt;\n   &lt;a href=&quot; http://bayimg.com/OaIAaaaDk&quot; rel=&quot;nofollow&quot; target=&quot;_NEW&quot;&gt; http://bayimg.com/OaIAaaaDk&lt;/a&gt;\n   &lt;a href=&quot; http://bayimg.com/OaIABAaDK&quot; rel=&quot;nofollow&quot; target=&quot;_NEW&quot;&gt; http://bayimg.com/OaIABAaDK&lt;/a&gt;\n    \n   &lt;a href=&quot; http://bayimg.com/OaiAcAAdK&quot; rel=&quot;nofollow&quot; target=&quot;_NEW&quot;&gt; http://bayimg.com/OaiAcAAdK&lt;/a&gt;\n.\nVideo\n.\nFormat profile                   : &lt;a class=&quot;__cf_email__&quot; href=&quot;/cdn-cgi/l/email-protection&quot; data-cfemail=&quot;5119383639111d637f63&quot;&gt;[email&amp;#160;protected]&lt;/a&gt;&lt;script cf-hash='f9e31' type=&quot;text/javascript&quot;&gt;\n/* &lt;![CDATA[ */!function(){try{var t=&quot;currentScript&quot;in document?document.currentScript:function(){for(var t=document.getElementsByTagName(&quot;script&quot;),e=t.length;e--;)if(t[e].getAttribute(&quot;cf-hash&quot;))return t[e]}();if(t&amp;&amp;t.previousSibling){var e,r,n,i,c=t.previousSibling,a=c.getAttribute(&quot;data-cfemail&quot;);if(a){for(e=&quot;&quot;,r=parseInt(a.substr(0,2),16),n=2;a.length-n;n+=2)i=parseInt(a.substr(n,2),16)^r,e+=String.fromCharCode(i);e=document.createTextNode(e),c.parentNode.replaceChild(e,c)}}}catch(u){}}();/* ]]&gt; */&lt;/script&gt;\nFormat settings, CABAC           : Yes\nFormat settings, ReFrames        : 10 frames\nCodec ID                         : H264\nDuration                         : 1h 15mn\nBit rate                         : 895 Kbps\nWidth                            : 704 pixels\nHeight                           : 288 pixels\nDisplay aspect ratio             : 2.40:1\nFrame rate                       : 25.000 fps\nColor space                      : YUV\nChroma subsampling               : 4:2:0\nBit depth                        : 8 bits\nScan type                        : Progressive\nBits/(Pixel*Frame)               : 0.177\nStream size                      : 485 MiB (70%)\nWriting library                  : x264 core 93\n.\nAudio\n.\nFormat                           : AC-3\nFormat/Info                      : Audio Coding 3\nMode extension                   : CM (complete main)\nCodec ID                         : 2000\nDuration                         : 1h 15mn\nBit rate mode                    : Constant\nBit rate                         : 384 Kbps\nChannel(s)                       : 6 channels\nChannel positions                : Front: L C R, Side: L R, LFE\nSampling rate                    : 48.0 KHz\nBit depth                        : 16 bits\nStream size                      : 208 MiB (30%)\nAlignment                        : Aligned on interleaves\nInterleave, duration             : 64 ms (1.60 video frames)\nInterleave, preload duration     : 192 ms\n.\nSubs: NL (Selectable) \n.\nEncoder: NLMQ (Thanks Nice one)\n.\nEnjoy (MQ)\n.\n\n","torrent":{"xt":"urn:btih:0e8ec3bf0b45d6c1088f9e63a33ac03b2fe89de2","amp;dn":"Bloodrayne.The.Third.Reich.2010.H.264.AC3.NL.Subs.MQ.DMT","amp;tr":["udp%3A%2F%2Ftracker.openbittorrent.com%3A80","udp%3A%2F%2Fopen.demonii.com%3A1337","udp%3A%2F%2Ftracker.coppersurfer.tk%3A6969","udp%3A%2F%2Fexodus.desync.com%3A6969"],"infoHash":"0e8ec3bf0b45d6c1088f9e63a33ac03b2fe89de2","infoHashBuffer":{"type":"Buffer","data":[14,142,195,191,11,69,214,193,8,143,158,99,163,58,192,59,47,232,157,226]},"announce":[],"urlList":[]}}